<?xml version="1.0" standalone="no"?><!DOCTYPE svg PUBLIC "-//W3C//DTD SVG 1.1//EN" "http://www.w3.org/Graphics/SVG/1.1/DTD/svg11.dtd"><svg t="1729143315312" class="icon" viewBox="0 0 1024 1024" version="1.1" xmlns="http://www.w3.org/2000/svg" p-id="4770" xmlns:xlink="http://www.w3.org/1999/xlink" width="16" height="16"><path d="M882.744889 546.133333a26.851556 26.851556 0 0 1-19.456-8.533333L523.491556 177.095111a15.587556 15.587556 0 0 0-22.926223 0L160.711111 537.6c-10.752 11.377778-28.16 11.377778-38.912 0a30.549333 30.549333 0 0 1 0-41.301333l339.854222-360.448a68.380444 68.380444 0 0 1 100.693334 0l339.854222 360.448c10.752 11.434667 10.752 29.866667 0 41.301333a26.851556 26.851556 0 0 1-19.456 8.533333" fill="#000000" p-id="4771"></path><path d="M170.666667 426.666667m28.444444 0l0 0q28.444444 0 28.444445 28.444444l0 426.666667q0 28.444444-28.444445 28.444444l0 0q-28.444444 0-28.444444-28.444444l0-426.666667q0-28.444444 28.444444-28.444444Z" fill="#000000" p-id="4772"></path><path d="M796.444444 426.666667m28.444445 0l0 0q28.444444 0 28.444444 28.444444l0 426.666667q0 28.444444-28.444444 28.444444l0 0q-28.444444 0-28.444445-28.444444l0-426.666667q0-28.444444 28.444445-28.444444Z" fill="#000000" p-id="4773"></path><path d="M512 568.888889a142.222222 142.222222 0 0 1 141.937778 132.892444l0.284444 9.329778v170.666667a28.444444 28.444444 0 0 1-56.433778 5.12l-0.455111-5.12v-170.666667a85.333333 85.333333 0 0 0-170.268444-8.192L426.666667 711.111111v170.666667a28.444444 28.444444 0 0 1-56.433778 5.12L369.777778 881.777778v-170.666667A142.222222 142.222222 0 0 1 512 568.888889z" fill="#000000" p-id="4774"></path></svg>