<?xml version="1.0" standalone="no"?><!DOCTYPE svg PUBLIC "-//W3C//DTD SVG 1.1//EN" "http://www.w3.org/Graphics/SVG/1.1/DTD/svg11.dtd"><svg t="1729150205781" class="icon" viewBox="0 0 1024 1024" version="1.1" xmlns="http://www.w3.org/2000/svg" p-id="22144" xmlns:xlink="http://www.w3.org/1999/xlink" width="16" height="16"><path d="M383.28 428.88h-184V214.32h184A112.8 112.8 0 0 1 486.4 320a114 114 0 0 1-103.12 108.88M624 321.44a223.44 223.44 0 0 0-222.16-224.56h-1.2a145.76 145.76 0 0 0-16.72 0H85.6v822.08h113.28V544h184a125.68 125.68 0 0 0 17.36 0A223.44 223.44 0 0 0 624 321.44" fill="#409EFF" p-id="22145"></path><path d="M933.12 691.44a33.92 33.92 0 0 0-17.76-29.44l-40-22a54.16 54.16 0 0 1-19.36-19.12L848 608a50.16 50.16 0 0 1-6.8-24l-0.72-49.44a33.76 33.76 0 0 0-17.36-28.8l-29.04-16.4a36.56 36.56 0 0 0-36.64 0.56l-38.32 22.96a56 56 0 0 1-28.72 8h-12.08a55.52 55.52 0 0 1-27.84-7.36l-41.36-24a36.64 36.64 0 0 0-36.16 0l-28.8 16a33.76 33.76 0 0 0-17.44 29.92l1.12 48a49.6 49.6 0 0 1-6.8 25.84l-6.8 11.68A52.4 52.4 0 0 1 493.68 640l-41.28 22.16a33.84 33.84 0 0 0-18.16 29.68v33.84a33.92 33.92 0 0 0 17.44 29.28l42.8 24a53.04 53.04 0 0 1 19.44 18.88l7.28 12.32a48.48 48.48 0 0 1 6.88 25.92l-0.88 45.68a33.6 33.6 0 0 0 17.52 30.24l29.2 16a36.32 36.32 0 0 0 35.44 0l42-22.88a56 56 0 0 1 26.8-6.8h13.84a56 56 0 0 1 27.52 7.2l39.04 22a36.64 36.64 0 0 0 35.84 0L824 912a33.76 33.76 0 0 0 17.36-28.8l0.56-47.36a49.92 49.92 0 0 1 6.8-24l8-13.68a51.36 51.36 0 0 1 18.56-18.48l41.2-24a33.76 33.76 0 0 0 16.8-28.96z m-249.44 117.2A99.84 99.84 0 1 1 783.52 708.8a99.92 99.92 0 0 1-99.84 99.84z" fill="#409EFF" p-id="22146"></path></svg>