<?xml version="1.0" standalone="no"?><!DOCTYPE svg PUBLIC "-//W3C//DTD SVG 1.1//EN" "http://www.w3.org/Graphics/SVG/1.1/DTD/svg11.dtd"><svg t="1729352843713" class="icon" viewBox="0 0 1024 1024" version="1.1" xmlns="http://www.w3.org/2000/svg" p-id="23527" xmlns:xlink="http://www.w3.org/1999/xlink" width="16" height="16"><path d="M890.4704 977.06453334h-60.07466667v-824.66133334c0-23.48373333-20.75306667-42.5984-45.8752-42.59840001H248.2176c-25.12213333 0-45.8752 19.11466667-45.8752 42.59840001v824.66133334h-60.07466667v-824.66133334c0-56.79786667 47.5136-102.67306667 105.94986667-102.67306666h536.30293333c58.43626667 0 105.94986667 45.8752 105.94986667 102.67306666v824.66133334z" p-id="23528"></path><path d="M551.3216 164.41813333h221.184c6.5536 0 12.01493333 5.46133333 12.01493333 12.01493334v20.75306667c0 6.5536-5.46133333 12.01493333-12.01493333 12.01493333h-221.184c-6.5536 0-12.01493333-5.46133333-12.01493333-12.01493333v-20.75306667c0-6.5536 5.46133333-12.01493333 12.01493333-12.01493334zM242.21013333 164.41813333h221.184c6.5536 0 12.01493333 5.46133333 12.01493334 12.01493334v20.75306667c0 6.5536-5.46133333 12.01493333-12.01493334 12.01493333H242.21013333c-6.5536 0-12.01493333-5.46133333-12.01493333-12.01493333v-20.75306667c0.54613333-6.5536 5.46133333-12.01493333 12.01493333-12.01493334zM325.632 977.06453334h-180.224v-67.1744h180.224zM889.66212267 977.06453334h-180.224v-67.1744h180.224z" p-id="23529"></path><path d="M510.90773333 290.0288c42.5984-1.09226667 85.1968 6.5536 125.06453334 21.29919999 50.7904 20.75306667 61.71306667 50.24426667 61.71306666 70.99733335V789.19466667c0 46.42133333-57.89013333 93.3888-186.7776 93.3888s-186.7776-46.96746667-186.7776-93.3888V382.32533334c0.54613333-63.8976 93.93493333-92.29653333 186.7776-92.29653334z m0 570.70933334c81.92 0 164.93226667-24.576 164.93226667-71.54346667V382.32533334c0-45.8752-84.65066667-70.4512-164.93226667-70.45120001s-164.93226667 24.576-164.93226666 70.45120001V789.19466667c0.54613333 46.96746667 83.01226667 71.54346667 164.93226666 71.54346667z" p-id="23530"></path><path d="M510.90773333 890.77546666c-97.21173333 0-194.9696-31.1296-194.9696-101.58079999V382.32533334c0-69.35893333 97.75786667-100.48853333 194.9696-100.48853335 43.69066667-1.09226667 86.8352 6.5536 127.7952 21.84533335 55.7056 22.9376 67.1744 55.7056 67.1744 78.6432V789.19466667c0 70.4512-97.75786667 101.5808-194.9696 101.58079999z m0-592.55466666c-85.74293333 0-178.5856 26.2144-178.5856 84.10453334V789.19466667c0 42.5984 55.15946667 85.1968 178.5856 85.1968s178.5856-42.5984 178.5856-85.1968V382.32533334c0-26.2144-19.6608-48.60586667-56.79786666-63.35146667-38.77546667-14.7456-79.73546667-21.84533333-121.78773334-20.75306667z m0 570.70933334c-83.01226667 0-173.12426667-25.12213333-173.12426666-79.73546667V382.32533334c0-51.33653333 86.8352-78.6432 173.12426666-78.6432 85.74293333 0 173.12426667 26.76053333 173.12426667 78.6432V789.19466667c0 54.61333333-89.56586667 79.73546667-173.12426667 79.73546667z m0-548.864c-97.75786667 0-156.74026667 31.67573333-156.74026666 62.2592V789.19466667c0 30.58346667 54.61333333 63.35146667 156.74026666 63.35146666s156.74026667-32.768 156.74026667-63.35146666V382.32533334c0-30.58346667-58.43626667-62.2592-156.74026667-62.2592z" p-id="23531"></path><path d="M674.2016 749.32693333c5.46133333 0 10.37653333 4.36906667 10.37653333 10.37653334 0 4.9152-3.2768 8.73813333-7.64586666 9.8304l-35.49866667 8.73813332c-22.39146667 5.46133333-38.22933333 25.66826667-38.22933333 49.152v13.65333335c0 5.46133333-4.36906667 10.37653333-10.37653334 10.37653332s-10.37653333-4.36906667-10.37653333-10.37653332V827.42399999c0-32.768 21.84533333-60.6208 53.52106667-68.8128l35.49866666-8.73813332c1.09226667-0.54613333 2.18453333-0.54613333 2.73066667-0.54613334z" p-id="23532"></path><path d="M592.82773333 856.91519999c-8.73813333 0-15.83786667-7.09973333-15.83786666-15.83786665V827.42399999c0-34.95253333 23.48373333-65.536 57.89013333-74.27413333l35.49866667-8.73813333c1.09226667-0.54613333 2.73066667-0.54613333 3.82293333-0.54613334 8.73813333 0 15.83786667 7.09973333 15.83786667 15.83786668 0 7.09973333-4.9152 13.65333333-12.01493334 15.29173333l-35.49866666 8.73813333c-20.20693333 4.9152-33.86026667 22.9376-33.86026667 43.69066666v13.65333335c-0.54613333 8.73813333-7.64586667 15.83786667-15.83786667 15.83786665z m81.37386667-102.12693332h-1.09226667l-35.49866666 8.73813332c-28.94506667 7.09973333-49.69813333 33.31413333-49.69813334 63.35146667v13.65333334c0 2.73066667 2.18453333 4.9152 4.9152 4.9152s4.9152-2.18453333 4.9152-4.9152V827.42399999c0-25.66826667 17.47626667-48.05973333 42.5984-54.0672l35.49866667-8.73813332c2.18453333-0.54613333 3.82293333-2.18453333 3.82293333-4.36906667-0.54613333-3.2768-2.73066667-5.46133333-5.46133333-5.46133333zM348.16 749.32693333c1.09226667 0 1.6384 0 2.73066667 0.54613334l35.49866666 8.73813332c31.67573333 7.64586667 53.52106667 36.0448 53.52106667 68.8128v13.65333335c0 5.46133333-4.36906667 10.37653333-10.37653333 10.37653332-5.46133333 0-10.37653333-4.36906667-10.37653334-10.37653332V827.42399999c0-22.9376-15.83786667-43.14453333-38.22933333-49.152l-35.49866667-8.73813332c-5.46133333-1.09226667-8.73813333-7.09973333-7.64586666-12.56106667 1.6384-4.36906667 5.46133333-7.64586667 10.37653333-7.64586667z" p-id="23533"></path><path d="M429.53386667 856.91519999c-8.73813333 0-15.83786667-7.09973333-15.83786667-15.83786665V827.42399999c0-20.75306667-14.19946667-38.77546667-33.86026667-43.69066666l-35.49866666-8.73813333c-8.192-2.18453333-13.65333333-10.37653333-11.4688-19.11466666 1.6384-7.09973333 8.192-12.01493333 15.29173333-12.01493335 1.09226667 0 2.73066667 0 3.82293333 0.54613334l35.49866667 8.73813333c33.86026667 8.73813333 57.89013333 38.77546667 57.89013333 74.27413333v13.65333335c0 8.73813333-7.09973333 15.83786667-15.83786666 15.83786665zM348.16 754.78826667c-2.18453333 0-3.82293333 1.6384-4.36906667 3.82293332-0.54613333 2.73066667 1.09226667 4.9152 3.2768 6.00746668l35.49866667 8.73813332c25.12213333 6.00746667 42.5984 28.39893333 42.5984 54.0672v13.65333335c0 2.73066667 2.18453333 4.9152 4.9152 4.9152s4.9152-2.18453333 4.9152-4.9152V827.42399999c0-30.03733333-20.20693333-56.25173333-49.69813333-63.35146666l-35.49866667-8.73813333c-1.09226667-0.54613333-1.6384-0.54613333-1.6384-0.54613333z" p-id="23534"></path><path d="M510.90773333 412.9088c37.6832-0.54613333 75.3664 4.9152 111.4112 15.83786666 12.56106667 3.82293333 21.2992 15.83786667 21.2992 28.94506668v230.46826666c0 4.36906667-2.73066667 8.192-6.5536 9.28426667-70.99733333 28.39893333-181.31626667 28.39893333-252.3136 0-3.82293333-1.6384-6.5536-5.46133333-6.5536-9.28426667V457.69173334c0-13.1072 8.73813333-25.12213333 21.2992-28.94506668 36.59093333-10.92266667 73.728-16.384 111.4112-15.83786666z m112.50346667 268.15146667V457.69173334c0-4.36906667-2.73066667-8.192-7.09973333-9.8304-68.8128-19.6608-141.44853333-19.6608-210.26133334 0-4.36906667 1.09226667-7.09973333 5.46133333-7.09973333 9.8304v223.36853333c73.18186667 22.9376 151.27893333 22.9376 224.4608 0z" p-id="23535"></path><path d="M510.90773333 724.20479999c-45.8752 0-92.29653333-7.09973333-128.34133333-21.29919999-6.00746667-2.18453333-9.8304-8.192-9.8304-14.7456V457.69173334c0-15.83786667 9.8304-29.4912 25.12213333-34.4064 36.59093333-10.92266667 74.82026667-16.384 113.0496-15.83786667 38.22933333-0.54613333 76.45866667 4.9152 113.0496 15.83786667 15.29173333 4.9152 25.12213333 18.56853333 25.12213334 34.4064v230.46826666c0 6.5536-3.82293333 12.01493333-9.8304 14.7456-36.0448 14.19946667-81.92 21.2992-128.34133334 21.29919999z m-3.82293333-305.83466665c-36.0448 0-71.54346667 5.46133333-105.94986667 15.83786665-10.37653333 3.2768-17.47626667 13.1072-17.47626666 24.02986667v230.46826668c0 2.18453333 1.09226667 3.82293333 2.73066666 4.36906666 69.35893333 27.8528 178.5856 27.8528 248.49066667 0 1.6384-0.54613333 2.73066667-2.18453333 2.73066667-4.36906666V457.69173334c0-10.92266667-7.09973333-20.75306667-17.47626667-24.02986668-35.49866667-10.92266667-72.0896-15.83786667-109.7728-15.83786666-0.54613333 0.54613333-1.6384 0.54613333-3.2768 0.54613334z m3.82293333 285.62773332c-38.22933333 0-76.45866667-6.00746667-113.59573333-17.47626666l-3.82293333-1.09226667V457.69173334c0-7.09973333 4.36906667-13.1072 10.92266666-14.7456 69.90506667-19.6608 143.63306667-19.6608 212.992 0 6.5536 2.18453333 10.92266667 8.192 10.92266667 15.29173332V685.42933333l-3.82293333 1.09226667c-36.59093333 11.4688-75.3664 17.47626667-113.59573334 17.47626666z m-106.496-26.76053332c69.90506667 21.2992 143.63306667 21.2992 213.53813334 0V457.69173334c0-2.18453333-1.09226667-3.82293333-3.2768-4.36906668-67.72053333-19.11466667-139.264-19.11466667-206.98453334 0-1.6384 0.54613333-3.2768 2.18453333-3.2768 4.36906668v219.5456z" p-id="23536"></path><path d="M777.4208 596.40959999c5.46133333 0 10.37653333 4.36906667 10.37653333 10.37653334 0 2.73066667-1.09226667 5.46133333-3.2768 7.64586667l-91.7504 81.37386667c-4.36906667 3.82293333-10.92266667 3.2768-14.19946666-1.09226668-3.82293333-4.36906667-3.2768-10.37653333 1.09226666-14.19946666l91.7504-81.37386666c1.6384-1.6384 3.82293333-2.73066667 6.00746667-2.73066668z" p-id="23537"></path><path d="M686.21653333 703.99786666c-4.36906667 0-8.73813333-1.6384-11.4688-5.46133332-5.46133333-6.5536-4.9152-16.384 1.09226667-21.84533334l91.7504-81.37386666c2.73066667-2.73066667 6.5536-3.82293333 10.37653333-3.82293335 8.73813333 0 15.83786667 7.09973333 15.83786667 15.83786668 0 4.36906667-2.18453333 8.73813333-5.46133333 11.4688l-91.7504 81.37386666c-3.2768 2.18453333-7.09973333 3.82293333-10.37653334 3.82293333z m91.20426667-102.12693333c-1.09226667 0-2.18453333 0.54613333-3.2768 1.09226667l-91.7504 81.37386666c-2.18453333 1.6384-2.18453333 4.9152-0.54613333 6.55360001 1.6384 2.18453333 4.9152 2.18453333 6.5536 0.54613333l91.7504-81.37386666c1.09226667-1.09226667 1.6384-2.18453333 1.6384-3.82293335 0.54613333-2.18453333-1.6384-4.36906667-4.36906667-4.36906666z" p-id="23538"></path><path d="M246.03306667 596.40959999c2.73066667 0 4.9152 1.09226667 6.5536 2.73066668l91.7504 81.37386666c4.36906667 3.82293333 4.36906667 10.37653333 0.54613333 14.19946666-3.82293333 4.36906667-10.37653333 4.36906667-14.19946667 1.09226668L238.93333333 614.432c-4.36906667-3.82293333-4.36906667-10.37653333-1.09226666-14.19946666 2.18453333-2.73066667 4.9152-3.82293333 8.192-3.82293335z" p-id="23539"></path><path d="M337.78346667 703.99786666c-3.82293333 0-7.64586667-1.09226667-10.37653334-3.82293333l-91.7504-81.37386666c-6.5536-5.46133333-7.09973333-15.83786667-1.09226666-21.84533334 5.46133333-6.00746667 15.83786667-6.5536 22.39146666-1.09226667L348.16 676.6912c3.2768 2.73066667 4.9152 6.5536 5.46133333 10.92266667 0 4.36906667-1.09226667 8.192-3.82293333 11.46879999-3.82293333 3.2768-8.192 4.9152-12.01493333 4.9152z m-91.7504-102.12693333c-1.09226667 0-2.73066667 0.54613333-3.82293334 1.63840001-1.6384 2.18453333-1.6384 4.9152 0.54613334 6.5536l91.7504 81.37386666c2.18453333 1.6384 4.9152 1.6384 6.5536-0.54613333 1.09226667-1.09226667 1.09226667-2.18453333 1.09226666-3.2768 0-1.09226667-0.54613333-2.18453333-1.6384-3.27680001l-91.7504-81.37386666c-0.54613333-0.54613333-1.6384-1.09226667-2.73066666-1.09226667z" p-id="23540"></path></svg>