<?xml version="1.0" standalone="no"?><!DOCTYPE svg PUBLIC "-//W3C//DTD SVG 1.1//EN" "http://www.w3.org/Graphics/SVG/1.1/DTD/svg11.dtd"><svg t="1729149152037" class="icon" viewBox="0 0 1024 1024" version="1.1" xmlns="http://www.w3.org/2000/svg" p-id="11626" xmlns:xlink="http://www.w3.org/1999/xlink" width="16" height="16"><path d="M1017.6 121.6l-19.2-64V51.2s0-6.4-6.4-6.4l-6.4-6.4s-6.4 0-6.4-6.4h-6.4-6.4-6.4-6.4L512 166.4V64c0-38.4-25.6-64-64-64H128c-38.4 0-64 25.6-64 64v896H32 25.6 19.2 12.8s-6.4 0-6.4 6.4l-6.4 6.4v38.4s0 6.4 6.4 6.4l6.4 6.4h550.4s6.4 0 6.4-6.4l6.4-6.4v-6.4-6.4-6.4-6.4-6.4-6.4s0-6.4-6.4-6.4l-6.4-6.4c-6.4-6.4-6.4 0-6.4 0h-6.4H512V300.8l480-140.8c6.4 0 6.4 0 12.8-6.4s6.4-6.4 6.4-12.8 6.4-6.4 6.4-12.8v-6.4zM448 185.6l-70.4 25.6c-25.6-25.6-57.6-38.4-89.6-38.4-38.4 0-64 12.8-89.6 38.4-25.6 25.6-38.4 57.6-38.4 89.6 0 38.4 12.8 64 38.4 89.6 25.6 25.6 57.6 38.4 89.6 38.4s64-12.8 89.6-38.4c19.2-19.2 32-38.4 32-57.6L448 320v640H128V64h320v121.6zM352 300.8c0 19.2-6.4 32-19.2 44.8-12.8 12.8-25.6 19.2-44.8 19.2s-32-6.4-44.8-19.2c-12.8-12.8-19.2-25.6-19.2-44.8 0-19.2 6.4-32 19.2-44.8s25.6-19.2 44.8-19.2 32 6.4 44.8 19.2 19.2 32 19.2 44.8z" p-id="11627"></path><path d="M224 800s-6.4 0 0 0h-12.8-6.4s-6.4 0-6.4 6.4l-6.4 6.4v38.4s0 6.4 6.4 6.4l6.4 6.4h166.4s6.4 0 6.4-6.4l6.4-6.4v-6.4-6.4-6.4-6.4-6.4-6.4s0-6.4-6.4-6.4l-6.4-6.4h-6.4-6.4-134.4z" p-id="11628"></path></svg>