<?xml version="1.0" standalone="no"?><!DOCTYPE svg PUBLIC "-//W3C//DTD SVG 1.1//EN" "http://www.w3.org/Graphics/SVG/1.1/DTD/svg11.dtd"><svg t="1730428563034" class="icon" viewBox="0 0 1024 1024" version="1.1" xmlns="http://www.w3.org/2000/svg" p-id="3807" xmlns:xlink="http://www.w3.org/1999/xlink" width="32" height="32"><path d="M456.192 512c123.904 0 224.256-100.352 224.256-224.256s-100.352-224.256-224.256-224.256-224.256 100.864-224.256 224.768S332.288 512 456.192 512z m0-392.192c92.672 0 167.936 75.264 167.936 167.936S548.864 455.68 456.192 455.68 288.256 380.416 288.256 288.256 363.52 119.808 456.192 119.808zM448 931.328v-27.136H147.968c-15.36 0-28.16-12.8-28.16-28.16v-72.704c0-98.816 80.384-179.2 179.2-179.2 28.672 0 57.344 19.456 117.76 26.112l67.584-55.296c-8.704 1.024-18.432 1.024-28.672 1.024-82.432 0-106.496-28.16-156.672-28.16-130.048 0-235.008 105.472-235.008 235.008V875.52c0 46.592 37.376 83.968 83.968 83.968h305.664c-3.584-8.192-5.632-17.92-5.632-28.16z" p-id="3808" fill="#8a8a8a"></path><path d="M744.96 960c-15.872 0-28.16-12.8-28.16-28.16v-111.616h-36.352V931.84c0 15.872-12.8 28.16-28.16 28.16H527.36c-15.872 0-28.16-12.8-28.16-28.16v-208.896l-18.944 15.36c-3.584 3.072-8.704 4.608-12.8 4.608-5.632 0-12.288-3.072-15.872-7.68l-9.728-12.288c-2.56-3.584-4.608-8.704-4.608-12.8 0-5.632 3.072-12.288 7.68-15.872l226.304-184.32c7.168-5.632 18.944-9.728 27.648-9.728s20.48 4.096 27.648 9.728l226.304 184.832c4.608 3.584 7.68 10.24 7.68 15.872 0 4.608-2.048 9.728-4.608 12.8l-9.728 12.288c-3.584 4.608-10.24 7.68-15.872 7.68-4.608 0-9.728-2.048-12.8-4.608l-18.944-15.36v208.896c0 15.872-12.8 28.16-28.16 28.16-1.024-1.024-125.44-0.512-125.44-0.512z m0-196.608c15.36 0 28.16 12.8 28.16 28.16v111.616h67.584V675.84l-142.848-116.224-141.824 116.224v227.328h67.584v-111.616c0-15.872 12.8-28.16 28.16-28.16h93.184z" p-id="3809" fill="#8a8a8a"></path></svg>