<?xml version="1.0" standalone="no"?><!DOCTYPE svg PUBLIC "-//W3C//DTD SVG 1.1//EN" "http://www.w3.org/Graphics/SVG/1.1/DTD/svg11.dtd"><svg t="1730275923787" class="icon" viewBox="0 0 1024 1024" version="1.1" xmlns="http://www.w3.org/2000/svg" p-id="3535" width="32" height="32" xmlns:xlink="http://www.w3.org/1999/xlink"><path d="M698.514286 736.609524v-17.980953H754.285714v-44.647619h-57.142857v-59.123809c19.809524-4.266667 37.942857-8.685714 56.076191-13.104762l-16.304762-43.12381c-49.066667 14.780952-99.504762 23.771429-150.4 27.580953l10.666666 42.209524c19.961905-1.828571 36.72381-4.266667 54.704762-6.247619v51.809523h-65.371428v44.647619h60.190476c-15.695238 44.952381-40.990476 86.247619-73.752381 120.685715l19.809524 48.914285c23.771429-30.933333 43.733333-64.761905 59.123809-100.723809V972.190476h46.628572V784.152381c9.752381 13.561905 21.790476 30.019048 36.266666 50.895238l26.057143-39.771429c-21.180952-21.485714-41.6-40.838095-62.323809-58.666666z" fill="#515A6E" p-id="3536"></path><path d="M959.238095 913.828571v-341.333333H774.095238v341.333333h-37.790476v44.952381h257.371428v-44.952381h-34.438095z m-46.628571 0h-92.647619V842.666667h92.647619v71.161904z m0-115.352381h-92.647619v-70.857142h92.647619V798.47619z m0-114.895238h-92.647619v-69.180952h92.647619v69.180952zM613.485714 438.247619c-2.895238 11.27619-5.638095 21.638095-8.533333 30.933333-2.895238 7.619048-6.4 15.695238-10.666667 24.076191-3.504762 7.009524-8.07619 13.257143-13.714285 18.590476-5.638095 3.961905-10.361905 9.752381-13.257143 16-2.590476 5.638095-4.571429 11.580952-6.4 17.52381-1.828571 6.247619-3.809524 12.495238-5.790476 18.590476-2.285714 6.4-5.638095 12.647619-10.666667 19.2-14.933333 18.742857-27.27619 39.619048-36.72381 61.714285-7.619048 18.438095-13.561905 37.790476-17.219047 57.6-3.2 18.133333-3.961905 36.571429-2.590476 54.704762s4.266667 35.657143 8.533333 52.72381c2.895238 12.647619 7.009524 26.057143 12.647619 39.771428 5.638095 13.866667 13.866667 28.038095 24.990476 42.666667 10.971429 14.47619 24.990476 28.647619 42.057143 42.666667 16.914286 13.714286 38.4 27.12381 63.847619 39.771428-17.219048 3.657143-36.87619 6.704762-59.580952 9.447619-55.466667 5.790476-111.238095 8.685714-167.161905 8.533334-18.438095 0-39.771429-0.609524-64.457143-2.285715-25.295238-1.371429-50.285714-3.2-75.428571-5.180952-25.904762-2.285714-51.504762-4.571429-76.495239-7.466667-25.295238-2.895238-48.304762-5.790476-69.028571-9.142857-17.980952-2.590476-35.504762-6.095238-53.333333-10.057143-14.47619-3.657143-23.619048-6.704762-27.12381-9.447619-6.247619-5.638095-11.27619-21.333333-14.933333-47.390476-3.657143-25.904762-2.438095-59.733333 3.2-101.485714 3.657143-23.466667 12.952381-41.447619 28.190476-53.638095 15.085714-12.342857 33.066667-22.247619 53.638095-29.257143 20.571429-7.009524 42.057143-13.714286 64.457143-19.504762 20.72381-5.485714 40.838095-13.714286 59.12381-24.990476 13.561905-8.533333 23.771429-16.304762 30.933333-24.076191 7.009524-7.466667 12.038095-14.933333 14.933333-22.857143 2.895238-7.619048 4.266667-16 4.266667-24.380952s-0.457143-17.828571-1.219048-27.580952c-1.371429-14.933333-6.4-26.666667-15.390476-35.2-9.142857-8.685714-18.590476-17.371429-28.038095-25.6-6.4-5.028571-11.580952-11.733333-14.933333-19.2-3.961905-7.92381-7.619048-16.152381-10.666667-24.380953-3.809524-10.057143-6.704762-20.419048-8.533333-30.933333-4.87619-1.371429-9.752381-3.657143-13.866667-6.4-4.419048-3.809524-8.228571-8.07619-11.733333-12.647619-5.180952-7.92381-9.295238-16.609524-11.733334-25.6-3.504762-9.447619-4.571429-19.809524-3.657143-29.866667 1.219048-9.142857 3.047619-16.914286 5.790477-23.466666 2.895238-7.92381 6.704762-14.47619 11.733333-20.114286 0-24.07619 1.371429-48.304762 4.266667-72.228572 2.895238-20.571429 7.314286-42.666667 13.257142-65.980952s15.695238-44.342857 29.257143-62.780952c12.647619-17.828571 26.514286-32.304762 40.990477-43.580953 14.47619-11.27619 29.714286-20.114286 45.257142-26.666666 15.542857-6.4 31.238095-10.971429 46.780953-13.257143 15.542857-2.438095 30.47619-3.657143 44.647619-3.657143 18.590476 0 36.114286 1.980952 53.333333 6.4 16.914286 4.266667 32.914286 9.904762 47.238095 16.914286 14.780952 7.009524 27.428571 15.085714 38.704762 24.07619s20.571429 17.980952 27.580953 27.12381c16.304762 20.571429 28.038095 43.12381 35.657143 67.961904 7.466667 24.838095 12.952381 48.304762 16.304761 70.247619 3.657143 25.6 5.028571 51.047619 4.266667 76.495238 4.266667 3.657143 7.92381 7.92381 10.666667 12.64762 2.895238 4.266667 5.028571 9.904762 6.4 17.219047 1.371429 8.838095 1.371429 17.828571 0 26.666667-1.371429 13.561905-4.266667 24.07619-8.533334 31.847619-3.504762 6.857143-8.228571 12.952381-13.866666 17.980952-4.72381 4.266667-10.819048 7.92381-17.676191 10.209524z" fill="#515A6E" p-id="3537"></path></svg>