<?xml version="1.0" standalone="no"?><!DOCTYPE svg PUBLIC "-//W3C//DTD SVG 1.1//EN" "http://www.w3.org/Graphics/SVG/1.1/DTD/svg11.dtd"><svg t="1731370966896" class="icon" viewBox="0 0 1024 1024" version="1.1" xmlns="http://www.w3.org/2000/svg" p-id="4307" width="48" height="48" xmlns:xlink="http://www.w3.org/1999/xlink"><path d="M384 583.2192V509.35808c0-8.73984-6.87616-15.8208-15.36-15.8208h-14.42816l-8.71936-48.29184c-4.56192-12.22656-15.96416-20.29056-28.672-20.29056H246.37952c-12.70784 0-24.11008 8.064-28.672 20.29056l-8.71936 48.28672H194.56c-8.48384 0-15.36 7.08608-15.36 15.82592v72.96c0 8.56576 6.23104 16.24576 14.53568 16.69632 0.27648 0.01024 0.54784 0.02048 0.82432 0.02048 8.48384 0 15.36-7.08608 15.36-15.8208v-5.2736h143.36v4.37248c0 8.57088 6.23104 16.25088 14.53568 16.70144 0.27648 0.01536 0.54784 0.02048 0.82432 0.02048 8.48384 0 15.36-7.08608 15.36-15.8208z m5.14048-126.75072A56.87296 56.87296 0 0 1 424.96 509.3632v73.85088C424.96 614.52288 399.6928 640 368.64 640c-1.00352 0-2.0224-0.0256-3.03616-0.08192-16.38912-0.88576-30.83264-8.89856-40.53504-21.0176H238.34112C228.00384 631.76192 212.21888 640 194.56 640c-1.00352 0-2.0224-0.0256-3.03104-0.08192C161.64864 638.3104 138.24 613.00224 138.24 582.31808V509.3632c0-24.02304 14.86848-44.61056 35.81952-52.8896l3.33824-18.50368c0.43008-2.40128 1.08032-4.75648 1.93024-7.04512C189.80864 402.85696 216.7552 384 246.37952 384h70.44096c29.62432 0 56.57088 18.85696 67.05152 46.9248 0.84992 2.28352 1.50016 4.64384 1.93024 7.04512l3.33824 18.49856zM332.8 491.52a20.48 20.48 0 0 1 0 40.96H230.4a20.48 20.48 0 0 1 0-40.96h102.4z" fill="#bfbfbf" p-id="4308"></path><path d="M916.48 757.76V266.24c0-28.23168-22.96832-51.2-51.2-51.2H158.72c-28.23168 0-51.2 22.96832-51.2 51.2v491.52c0 28.23168 22.96832 51.2 51.2 51.2h706.56c28.23168 0 51.2-22.96832 51.2-51.2zM865.28 163.84c56.46336 0 102.4 45.93664 102.4 102.4v491.52c0 56.46336-45.93664 102.4-102.4 102.4H158.72c-56.45824 0-102.4-45.93664-102.4-102.4V266.24c0-56.46336 45.94176-102.4 102.4-102.4h706.56z m-12.9536 272.78336c2.8672-2.87232 4.4544-6.72768 4.4544-10.85952 0-4.13184-1.57696-7.9872-4.4544-10.85952-5.74976-5.74976-15.9744-5.74976-21.72416 0L554.8544 690.6368l-13.96224 35.6864 35.6864-13.96224 275.74272-275.74272z m-10.85952-67.13856c15.07328 0 29.21472 5.84704 39.82336 16.45568a55.92576 55.92576 0 0 1 16.45056 39.82336c0 15.06816-5.84192 29.21472-16.45568 39.82336l-281.8048 281.79968-65.44896 25.61536a30.74048 30.74048 0 0 1-32.92672-6.89152 30.72 30.72 0 0 1-6.87104-32.9216l25.61024-65.44896 281.79968-281.8048a55.9104 55.9104 0 0 1 39.82336-16.45056zM471.04 353.28a20.48 20.48 0 0 1 0-40.96h307.2a20.48 20.48 0 0 1 0 40.96H471.04z m0 92.16a20.48 20.48 0 0 1 0-40.96h204.8a20.48 20.48 0 0 1 0 40.96H471.04z m153.6 66.56a20.48 20.48 0 0 1-20.48 20.48H471.04a20.48 20.48 0 0 1 0-40.96h133.12a20.48 20.48 0 0 1 20.48 20.48z" fill="#bfbfbf" p-id="4309"></path></svg>